<svg xmlns="http://www.w3.org/2000/svg" width="34.875" height="34.875" viewBox="0 0 34.875 34.875">
  <path id="Icon_awesome-bitcoin" data-name="Icon awesome-bitcoin" d="M35.438,18A17.438,17.438,0,1,1,18,.563,17.437,17.437,0,0,1,35.438,18Zm-9.96-2.484c.347-2.32-1.42-3.568-3.836-4.4l.784-3.143L20.512,7.5l-.763,3.06c-.5-.125-1.02-.244-1.533-.361l.768-3.08-1.912-.477-.784,3.142c-.416-.095-.825-.189-1.222-.287l0-.01L12.43,8.825l-.509,2.043s1.42.325,1.39.345a1.018,1.018,0,0,1,.892,1.113l-.893,3.581a1.586,1.586,0,0,1,.2.064l-.2-.05-1.251,5.016a.7.7,0,0,1-.877.455c.019.028-1.391-.347-1.391-.347l-.95,2.19,2.49.621c.463.116.917.238,1.364.352L11.9,27.386l1.911.477.784-3.145q.76.206,1.525.4l-.782,3.131,1.913.477.792-3.173c3.263.617,5.716.368,6.749-2.582.832-2.376-.041-3.746-1.758-4.64a3.051,3.051,0,0,0,2.443-2.809Zm-4.372,6.13c-.591,2.376-4.592,1.091-5.889.769L16.268,18.2c1.3.324,5.456.964,4.838,3.442Zm.592-6.164c-.54,2.161-3.869,1.063-4.95.794l.953-3.82C18.781,12.725,22.26,13.227,21.7,15.482Z" transform="translate(-0.563 -0.563)" fill="#fff"/>
</svg>
